<svg width="40" height="33" viewBox="0 0 40 33" fill="none" xmlns="http://www.w3.org/2000/svg">
<path d="M18.1818 33L12.4091 27.775C10.2273 25.7889 8.35636 24.0167 6.79636 22.4583C5.23515 20.9 3.94727 19.4333 2.93273 18.0583C1.91697 16.6833 1.17455 15.3542 0.705455 14.0708C0.235152 12.7875 0 11.4431 0 10.0375C0 7.16528 0.954546 4.774 2.86364 2.86367C4.77273 0.954555 7.15152 0 10 0C11.5758 0 13.0758 0.336111 14.5 1.00833C15.9242 1.68056 17.1515 2.62778 18.1818 3.85C19.2121 2.62778 20.4394 1.68056 21.8636 1.00833C23.2879 0.336111 24.7879 0 26.3636 0C28.8182 0 30.8788 0.694833 32.5455 2.0845C34.2121 3.47539 35.3485 5.225 35.9545 7.33333H32.0909C31.5455 6.11111 30.7424 5.19444 29.6818 4.58333C28.6212 3.97222 27.5152 3.66667 26.3636 3.66667C24.8182 3.66667 23.4848 4.08711 22.3636 4.928C21.2424 5.76767 20.197 6.875 19.2273 8.25H17.1364C16.197 6.875 15.1291 5.76767 13.9327 4.928C12.7352 4.08711 11.4242 3.66667 10 3.66667C8.27273 3.66667 6.78 4.26983 5.52182 5.47617C4.26485 6.68372 3.63636 8.20417 3.63636 10.0375C3.63636 11.0458 3.84848 12.0694 4.27273 13.1083C4.69697 14.1472 5.45455 15.3468 6.54545 16.7072C7.63636 18.0663 9.12121 19.6546 11 21.472C12.8788 23.2907 15.2727 25.4833 18.1818 28.05C18.9697 27.3472 19.8939 26.5375 20.9545 25.6208C22.0152 24.7042 22.8636 23.9403 23.5 23.3292L23.9091 23.7417L24.7945 24.6363L25.6818 25.5292L26.0909 25.9417C25.4242 26.5528 24.5758 27.3087 23.5455 28.2095C22.5152 29.1115 21.6061 29.9139 20.8182 30.6167L18.1818 33ZM30.9091 25.6667V20.1667H25.4545V16.5H30.9091V11H34.5455V16.5H40V20.1667H34.5455V25.6667H30.9091Z" fill="white"/>
</svg>
