<svg width="40" height="40" viewBox="0 0 40 40" fill="none" xmlns="http://www.w3.org/2000/svg">
<path d="M16.6667 33.3333C15.75 33.3333 14.9653 33.0069 14.3125 32.3542C13.6598 31.7014 13.3334 30.9167 13.3334 30C13.3334 29.0833 13.6598 28.2986 14.3125 27.6458C14.9653 26.993 15.75 26.6667 16.6667 26.6667H33.3334C34.25 26.6667 35.0348 26.993 35.6875 27.6458C36.3403 28.2986 36.6667 29.0833 36.6667 30C36.6667 30.9167 36.3403 31.7014 35.6875 32.3542C35.0348 33.0069 34.25 33.3333 33.3334 33.3333H16.6667ZM16.6667 23.3333C15.75 23.3333 14.9653 23.0069 14.3125 22.3542C13.6598 21.7014 13.3334 20.9167 13.3334 20C13.3334 19.0833 13.6598 18.2986 14.3125 17.6458C14.9653 16.993 15.75 16.6667 16.6667 16.6667H33.3334C34.25 16.6667 35.0348 16.993 35.6875 17.6458C36.3403 18.2986 36.6667 19.0833 36.6667 20C36.6667 20.9167 36.3403 21.7014 35.6875 22.3542C35.0348 23.0069 34.25 23.3333 33.3334 23.3333H16.6667ZM16.6667 13.3333C15.75 13.3333 14.9653 13.0069 14.3125 12.3542C13.6598 11.7014 13.3334 10.9167 13.3334 9.99999C13.3334 9.08332 13.6598 8.2986 14.3125 7.64582C14.9653 6.99305 15.75 6.66666 16.6667 6.66666H33.3334C34.25 6.66666 35.0348 6.99305 35.6875 7.64582C36.3403 8.2986 36.6667 9.08332 36.6667 9.99999C36.6667 10.9167 36.3403 11.7014 35.6875 12.3542C35.0348 13.0069 34.25 13.3333 33.3334 13.3333H16.6667ZM6.66671 13.3333C5.75004 13.3333 4.96532 13.0069 4.31254 12.3542C3.65976 11.7014 3.33337 10.9167 3.33337 9.99999C3.33337 9.08332 3.65976 8.2986 4.31254 7.64582C4.96532 6.99305 5.75004 6.66666 6.66671 6.66666C7.58337 6.66666 8.3681 6.99305 9.02087 7.64582C9.67365 8.2986 10 9.08332 10 9.99999C10 10.9167 9.67365 11.7014 9.02087 12.3542C8.3681 13.0069 7.58337 13.3333 6.66671 13.3333ZM6.66671 23.3333C5.75004 23.3333 4.96532 23.0069 4.31254 22.3542C3.65976 21.7014 3.33337 20.9167 3.33337 20C3.33337 19.0833 3.65976 18.2986 4.31254 17.6458C4.96532 16.993 5.75004 16.6667 6.66671 16.6667C7.58337 16.6667 8.3681 16.993 9.02087 17.6458C9.67365 18.2986 10 19.0833 10 20C10 20.9167 9.67365 21.7014 9.02087 22.3542C8.3681 23.0069 7.58337 23.3333 6.66671 23.3333ZM6.66671 33.3333C5.75004 33.3333 4.96532 33.0069 4.31254 32.3542C3.65976 31.7014 3.33337 30.9167 3.33337 30C3.33337 29.0833 3.65976 28.2986 4.31254 27.6458C4.96532 26.993 5.75004 26.6667 6.66671 26.6667C7.58337 26.6667 8.3681 26.993 9.02087 27.6458C9.67365 28.2986 10 29.0833 10 30C10 30.9167 9.67365 31.7014 9.02087 32.3542C8.3681 33.0069 7.58337 33.3333 6.66671 33.3333Z" fill="black"/>
</svg>
